<svg width="309" height="250" viewBox="0 0 309 250" fill="none" xmlns="http://www.w3.org/2000/svg"><g clip-path="url(#clip0)"><path d="M271.714 36.582s-.638 5.309 2.361 5.309c2.998 0 2.552-4.605 2.552-4.605l-4.913-.704zM285.047 37.158s-.319 3.901 1.914 4.093c2.233.192 2.297-5.756 2.297-5.756l-4.211 1.663z" fill="#D59C5D"/><path d="M29.028 229.342s-10.654-.639-13.206 1.088c0-8.506-2.36-15.541-2.36-15.541S-3.127 222.116.51 234.715c3.637 12.599 10.655 15.797 24.243 14.517 13.59-1.279 16.588-4.284 18.055-10.872 1.531-6.651-13.78-9.018-13.78-9.018z" fill="#232B2D"/><path d="M128.488 249.424c-15.056 1.343-56.078 0-72.665 0-39.235-10.168-34.131-54.425-34.323-72.972-.191-18.547 23.477-40.931 23.797-44.449.319-3.517-5.423-6.076-5.423-6.076 3.126-3.709 9.187-5.692 16.204-6.715 12.122-1.727 27.05-.576 34.515-.959 8.357-.448 31.835-.256 45.232.703 5.551.384 9.378.896 9.634 1.535.957 2.239-2.233 8.314-2.233 8.314s19.458 15.03 24.562 51.804c7.655 51.484-24.243 67.472-39.3 68.815z" fill="#B9DEE7"/><path d="M244.918 151.317c1.212 12.152 2.297 27.757 1.021 32.042-1.914 6.267-5.423 13.622-7.975 17.779-2.551 4.157-7.528 34.728-26.348 38.054-18.82 3.325-71.964 3.069-81.214.959-3.637-.832-1.85-11.512 2.743-24.815 7.018-20.273 20.671-46.623 31.58-53.21 7.528-7.547 10.08-11.704 10.526-31.018.447-19.315 4.466-32.617 4.466-32.617.957-4.35 12.441-18.42 35.089-19.826 22.648-1.407 34.132 16.5 35.408 27.692 1.275 11.192-.83 26.733-6.891 31.978.447 2.558 1.021 7.418 1.595 12.982z" fill="#262E30"/><path d="M227.885 81.67s11.037-8.505 14.035-8.953c3.7 5.82 1.659 18.419 1.659 18.419s-13.589-6.268-15.694-9.465z" fill="#262E30"/><path d="M232.414 82.758s6.38-6.588 8.166-6.971c1.212 3.453.511 11.192.511 11.192s-7.401-3.07-8.677-4.221z" fill="#0E1112"/><path d="M236.051 97.403s1.531 13.495-9.889 15.541c-11.419 2.047-12.695-13.75-12.695-13.75s19.267-3.773 20.734-3.582c1.404.129 1.85 1.791 1.85 1.791zM207.406 99.386s2.232 12.087-10.846 13.75c-13.079 1.663-10.208-16.18-8.358-16.756 1.851-.575 16.014-.064 19.204 3.006z" fill="#202628"/><path d="M199.942 81.734s-9.761-6.14-10.463-6.843c-4.466 2.175-5.869 15.605-5.359 16.884.638 1.216 15.822-10.04 15.822-10.04z" fill="#262E30"/><path d="M196.241 82.886s-6.252-5.436-6.699-5.884c-1.786 2.43-3.891 9.401-3.19 12.663 3.318-2.622 9.889-6.78 9.889-6.78z" fill="#0E1112"/><path d="M206.768 98.555s-.51 10.232-10.526 9.977c-3.126 0-4.53-2.175-5.168-4.477-.766-2.622-.447-5.5-.447-5.5h16.141z" fill="#fff" stroke="#000" stroke-width="2" stroke-miterlimit="10" stroke-linecap="round"/><path d="M210.596 115.503s-2.807-3.006-3.19-3.966c-.383-.959 2.169-1.151 3.828-1.151 1.658 0 3.062.192 2.424 1.663-.638 1.471-2.105 3.582-3.062 3.454zM199.623 98.555s-1.659 6.459-8.549 5.5c-.766-2.622-.447-5.5-.447-5.5h8.996z" fill="#0E1112"/><path d="M193.229 100.858a.894.894 0 10-1.065.68.891.891 0 001.065-.68z" fill="#fff"/><path d="M232.414 98.555s-1.276 9.337-8.102 9.337c-2.488 0-6.444-.831-7.209-3.837-.766-2.622-.83-5.564-.83-5.564h16.141v.064z" fill="#fff" stroke="#000" stroke-width="2" stroke-miterlimit="10" stroke-linecap="round"/><path d="M225.205 98.555s-1.212 6.459-8.166 5.564c-.765-2.622-.829-5.564-.829-5.564h8.995z" fill="#0E1112"/><path d="M218.857 100.915a.893.893 0 10-1.744-.388.892.892 0 101.744.388z" fill="#fff"/><path d="M234.201 96.892s-14.163 2.75-21.245 1.215M209.32 98.107s-17.799.767-23.094-.768" stroke="#000" stroke-width="2" stroke-miterlimit="10" stroke-linecap="round"/><path d="M237.263 202.609s2.871 31.786-1.595 36.711c-4.466 4.924-15.566-13.623-15.566-13.623l17.161-23.088z" fill="#202628"/><path d="M41.469 142.875s29.666-2.878 38.916 0c9.25 2.878 64.181-2.558 66.669 0 2.488 2.558-52.633 13.751-67.307 13.751-14.673 0-37.832-9.146-38.278-13.751z" fill="#86A6AF"/><path d="M245.939 183.359c-1.914 6.267-5.423 13.622-7.975 17.779-2.551 4.157-7.528 34.728-26.348 38.054-18.82 3.325-71.964 3.069-81.214.959-3.637-.832-1.85-11.512 2.743-24.815 13.206.192 32.983 9.658 46.19 12.152 14.864 2.75 34.642-5.309 49.762-18.739 15.12-13.431 15.758-57.368 15.758-57.368 1.276 12.024 2.36 27.693 1.084 31.978z" fill="#202628"/><path d="M50.72 242.581c-5.423-3.453-20.735-22.96-25.52-52.379-3.7-13.75 16.269-47.327 16.269-47.327s30.623 11.704 45.934 8.443c15.311-3.262 56.78-6.844 59.651-8.443 7.974 6.076 20.096 38.054 13.716 62.357-6.38 24.303-16.268 32.297-37.002 37.605-20.735 5.308-73.049-.256-73.049-.256z" fill="#DDEDF1"/><path d="M45.296 132.003s39.554 6.076 54.866 5.436c15.311-.639 39.235-2.558 44.02-5.436" stroke="#86A6AF" stroke-width="2" stroke-miterlimit="10" stroke-linecap="round"/><path d="M128.488 125.927c-5.806 1.279-51.293 1.919-62.777 0-11.483-1.918-9.633-6.651-9.633-6.651 12.121-1.727 27.05-.576 34.514-.959 8.358-.448 31.835-.256 45.233.703.191.128.319.192.382.32 2.552 3.518-1.914 5.308-7.719 6.587z" fill="#86A6AF"/><path d="M44.212 129.125s32.281.96 42.808 2.878c10.527 1.919 49.443-.639 56.142-3.198" stroke="#DDEDF1" stroke-width="2" stroke-miterlimit="10" stroke-linecap="round"/><path d="M129.828 140.957s8.932.639 17.225 13.75c8.294 13.111 13.398 31.018 10.846 50.844-.638 5.117-1.914.96-5.104-15.349-3.19-16.308-8.74-33.256-15.822-41.251-7.145-7.994-6.571-2.238-7.145-7.994z" fill="#F1F1EE"/><path d="M144.182 179.65c3.573-.576-3.317-19.187-7.273-24.943-3.955-5.756-5.486-9.401-8.421-9.018-2.935.32 6.38 13.815 8.357 18.292 1.978 4.476 3.509 16.308 7.337 15.669z" fill="#F1F1EE"/><path d="M220.739 54.106c.319.384.447.895.574 1.407.064.512.128 1.023.064 1.535a8.713 8.713 0 01-.765 3.07c-.256.511-.575.96-1.021 1.343-.447.384-1.021.703-1.659.767a3.313 3.313 0 01-1.786-.32c-.255-.127-.511-.32-.766-.511-.191-.256-.446-.384-.638-.704-.383-.511-.51-1.087-.702-1.662-.063-.576-.127-1.152-.063-1.663.127-1.087.446-2.11 1.084-3.07.128-.256.383-.448.574-.64.256-.128.447-.32.702-.383.511-.192 1.021-.32 1.531-.32 1.149 0 2.233.32 2.871 1.151zm0 0c-.319-.384-.765-.703-1.212-.831-.51-.128-1.021-.128-1.531-.064s-.957.256-1.404.511c-.446.256-.765.576-.957.96a5.076 5.076 0 00-.382 1.407c-.064.447-.128.959-.128 1.407 0 .959.191 1.854.638 2.558.064.192.255.32.383.447.191.128.319.256.51.32.383.192.766.384 1.148.32.766 0 1.595-.575 2.17-1.343.574-.767.957-1.727 1.148-2.75.191-.96.191-2.047-.383-2.942zM223.036 51.1c-.191-.192-.382-.384-.446-.703a1.825 1.825 0 010-.832 3.49 3.49 0 01.765-1.535c.319-.448.83-.96 1.595-1.087a2.377 2.377 0 011.149.064c.382.128.701.448.893.767.191.32.319.64.383.96.063.32.063.64 0 .959-.064.704-.511 1.28-1.021 1.663-1.148.767-2.488.447-3.318-.256zm0 0c.447.384.957.512 1.532.512.51-.064 1.02-.32 1.276-.704.255-.384.382-.831.382-1.215-.063-.448-.127-.96-.319-1.215-.191-.256-.382-.448-.829-.448-.383 0-.829.128-1.276.448-.447.32-.829.703-1.021 1.151-.127.256-.191.512-.127.768.063.32.191.511.382.703zM229.225 45.472c-.064-.384 0-.703.063-1.087.064-.384.128-.704.256-1.087.255-.704.638-1.407 1.276-1.92.638-.51 1.531-.703 2.36-.575.192 0 .383.064.638.064l.574.192c.192.064.383.192.638.32l.255.256c.128.064.192.192.256.32l.191.383c.064.128.064.256.064.384v.384c0 .128-.064.255-.064.383-.128.448-.383.832-.638 1.152-.51.64-1.148 1.087-1.85 1.47-.702.384-1.467.576-2.233.448-.383-.064-.766-.128-1.085-.32-.319-.127-.638-.383-.701-.767zm0 0c.063.384.446.576.765.767.319.128.702.192 1.085.192s.702-.128 1.021-.255c.319-.128.574-.384.829-.576.51-.448.957-1.023 1.34-1.599.319-.576.446-1.151.255-1.343-.128-.32-.83-.64-1.467-.767-.638-.128-1.276-.192-1.851.064-1.276.511-2.105 2.046-1.977 3.517zM243.387 31.786c-.702-1.407-1.148-2.878-1.595-4.413-.383-1.535-.701-3.07-.829-4.669-.128-1.599 0-3.198.446-4.797.256-.767.575-1.535 1.085-2.238.128-.192.255-.32.383-.512l.446-.447.447-.448c.128-.128.319-.256.447-.384 1.276-1.023 2.743-1.726 4.274-2.238 1.531-.512 3.062-.896 4.593-1.087a23.194 23.194 0 014.721-.128c.766.064 1.532.192 2.297.32.766.191 1.531.447 2.169.83-1.467-.575-2.998-.575-4.529-.575a35.064 35.064 0 00-4.53.512c-1.467.32-2.935.703-4.338 1.215-1.404.512-2.743 1.215-3.892 2.11-2.424 1.727-3.126 4.797-3.126 7.803.128 3.07.702 6.14 1.531 9.146zM263.802 9.53a25.011 25.011 0 0111.292-8.187C277.327.512 279.687.128 282.112 0h2.233l.446.064.893.064c.574.064 1.212.064 1.787.256l1.722.32c2.297.575 4.594 1.343 6.699 2.622l1.467 1.087c.447.384.893.831 1.34 1.279.383.512.766.96 1.085 1.471l.446.831c.128.256.319.512.383.832.957 2.238 1.084 4.732.893 7.099a27.475 27.475 0 01-1.659 6.843c.511-2.302.957-4.605 1.021-6.907.064-2.303-.255-4.605-1.148-6.651-.064-.256-.255-.512-.383-.704l-.447-.703c-.319-.448-.701-.896-1.02-1.28l-1.213-1.087-1.403-.96c-1.914-1.15-4.083-1.854-6.316-2.365l-1.659-.32c-.574-.128-1.148-.128-1.658-.256l-.957-.256-.447-.064h-2.169c-2.297.064-4.53.384-6.699 1.087-2.169.704-4.274 1.663-6.188 2.878-1.021.576-1.914 1.28-2.807 1.983-.894.767-1.787 1.535-2.552 2.366zM301.188 21.233c2.935 3.198 5.231 7.035 6.443 11.32.319 1.087.511 2.174.638 3.262.128 1.087.128 2.238.064 3.325-.191 2.239-.893 4.413-1.914 6.396-1.084 1.918-2.552 3.71-4.274 5.116-1.787 1.407-3.828 2.43-6.061 2.814-4.402.896-8.932 0-12.823-1.855 2.041.704 4.147 1.216 6.252 1.344 2.105.191 4.274.064 6.316-.448a13.603 13.603 0 005.486-2.814c1.595-1.343 2.935-3.006 3.956-4.797 1.021-1.854 1.659-3.837 1.85-5.884.128-1.023.128-2.11.064-3.133-.064-1.024-.255-2.11-.447-3.134-.446-2.047-1.212-4.093-2.169-6.012a45.563 45.563 0 00-3.381-5.5zM281.793 49.565c-.319 1.855-1.149 3.71-2.425 5.18a8.361 8.361 0 01-2.296 1.92c-.894.51-1.914.767-2.871.895-2.042.191-4.019-.32-5.742-1.216a17.204 17.204 0 01-4.657-3.325c1.658.895 3.317 1.79 5.04 2.43.893.256 1.722.576 2.615.704.894.128 1.787.255 2.616.128 1.723-.128 3.318-.96 4.657-2.239a15.024 15.024 0 003.063-4.477zM264.887 55.129a15.79 15.79 0 01-4.848 1.151 16.79 16.79 0 01-5.04-.383c-1.659-.448-3.254-1.152-4.594-2.239-1.339-1.087-2.36-2.494-2.934-4.03 1.084 1.28 2.169 2.431 3.509 3.263.638.383 1.339.831 2.041 1.087a9.08 9.08 0 002.233.703c1.531.384 3.126.576 4.721.64 1.659 0 3.254-.064 4.912-.192z" fill="#231F20"/><path d="M251.872 49.565c-1.021.32-2.169.384-3.254.384-1.084 0-2.233-.192-3.317-.576-1.085-.383-2.105-.96-2.935-1.79a8.272 8.272 0 01-1.977-2.878c-.894-2.175-1.021-4.477-.766-6.652.255-2.174.829-4.349 1.595-6.331-.319 2.174-.574 4.285-.638 6.395v1.6c.064.51.064 1.022.127 1.534.128 1.023.383 2.047.766 2.942a7.992 7.992 0 004.083 4.22c.957.449 1.978.704 2.999.896 1.212.256 2.233.32 3.317.256z" fill="#231F20"/><path d="M293.469 25.71s-2.233-5.948-6.125-6.971c-3.891-1.024-10.526 1.215-10.526 1.215s-14.099 6.78-13.78 10.233c.319 3.453 3.572 5.052 7.017 6.012 3.445.959 12.313 1.918 16.269.703 3.955-1.215 9.123-5.82 9.824-9.274.575-1.982-2.679-1.918-2.679-1.918z" fill="#E4AF75"/><path d="M252.319 30.89c-.128-1.599 8.804.576 11.483 1.6 1.149.639 1.149 1.278 1.149 1.278s-.702 8.89-3.764 9.018c-3.063.128.319-6.587-1.532-7.739-1.85-1.15-7.209-1.982-7.336-4.157z" fill="#D59C5D"/><path d="M263.483 28.716s.638-2.75 1.404-3.134c.766-.384-.383-2.11.574-3.39.957-1.279 2.743-.32 3.509-1.343s0-1.982 2.552-2.43c2.552-.448 5.55 1.343 6.252 1.151.702-.192-14.291 9.146-14.291 9.146z" fill="#E4AF75"/><path d="M253.276 32.297c1.276-.383 2.552-.511 3.828-.64a19.784 19.784 0 013.892 0c-1.276.384-2.552.512-3.828.64-1.34.064-2.616.128-3.892 0zM257.104 33.96c1.149-.448 2.297-.64 3.446-.831a16.524 16.524 0 013.572-.192c-1.148.448-2.296.64-3.445.831-1.212.192-2.36.256-3.573.192zM260.166 37.478c.638-.832 1.404-1.471 2.169-2.11a11.497 11.497 0 012.552-1.6c-.638.832-1.404 1.471-2.169 2.11-.766.576-1.595 1.152-2.552 1.6zM279.561 19.186V23.855c0 1.535.064 3.07.191 4.605.064 1.535.255 3.07.574 4.605.128.767.319 1.47.575 2.238l.382 1.087c.192.32.383.704.511 1.024-1.021-1.215-1.595-2.75-1.978-4.221-.383-1.535-.638-3.07-.702-4.669a28.654 28.654 0 010-4.669c.064-1.599.192-3.134.447-4.669zM273.308 18.483c.255.575.319 1.087.319 1.663 0 .575-.064 1.087-.319 1.663-.255-.576-.319-1.088-.319-1.663 0-.576.064-1.151.319-1.663zM270.055 18.995c.255.767.319 1.534.382 2.302 0 .767-.063 1.535-.255 2.302-.255-.767-.319-1.535-.383-2.302-.063-.768 0-1.535.256-2.302zM266.738 21.553c.319.64.447 1.279.51 1.918.064.64.064 1.343-.127 1.983-.319-.64-.447-1.28-.511-1.919-.063-.64-.063-1.279.128-1.982zM276.626 32.297a4.293 4.293 0 01-.447-.703l-.383-.768a2.055 2.055 0 01-.191-.895c0-.32.128-.768.447-.96l-.064.384a2.298 2.298 0 01-.511-.767c-.127-.32-.191-.64-.127-.96a1.62 1.62 0 011.34-1.407l-.128.576c-.447-.32-.893-.703-1.148-1.279a1.371 1.371 0 01-.064-1.023c.191-.32.51-.512.829-.576l-.127.32c-.192-.448-.256-.96-.064-1.407.127-.448.446-.832.829-1.087-.319.32-.51.703-.574 1.087v.575l.191.576.128.256-.255.064c-.192.064-.383.192-.447.32-.064.127 0 .383.064.575.191.384.574.768 1.021 1.023l.574.448-.766.128c-.382.064-.765.448-.829.895 0 .192 0 .448.064.64s.255.448.383.64l.191.255-.255.128c-.192.064-.255.256-.255.512s0 .512.063.767c.064.576.319 1.152.511 1.663zM272.097 22.448c-.128.576-.192 1.087-.128 1.663 0 .512.255 1.023.638 1.151l.383.128-.319.32a.998.998 0 00-.383.512c-.064.191-.127.383-.064.575.064.192.128.384.256.512.127.192.319.32.446.384l.383.191-.255.256c-.255.384-.447.768-.447 1.151 0 .384.319.768.702.768l.383.064-.128.32c-.191.383-.319.831-.191 1.279.064.447.383.895.765 1.215-.446-.256-.829-.64-1.02-1.151-.128-.256-.128-.512-.128-.832 0-.256.064-.575.191-.831l.192.32c-.702 0-1.149-.576-1.276-1.152-.064-.32 0-.64.127-.895.064-.256.256-.512.383-.703l.128.511a1.747 1.747 0 01-.766-.575 1.992 1.992 0 01-.383-.832c-.063-.32 0-.64.192-.96a1.87 1.87 0 01.574-.639l.064.448a1.101 1.101 0 01-.638-.768c-.128-.32-.128-.639-.128-.895 0-.512.192-1.087.447-1.535zM268.971 33.768c-.255-.32-.447-.703-.447-1.151 0-.192.064-.448.192-.64.127-.191.319-.32.51-.447v.447a2.288 2.288 0 01-.638-.447 1.183 1.183 0 01-.319-.768c0-.256 0-.575.128-.831.063-.256.191-.448.382-.704l.128.448c-.319-.192-.638-.384-.893-.704-.128-.127-.255-.32-.255-.511-.064-.192-.064-.448.063-.64.064-.192.192-.383.319-.511l.383-.384c.255-.192.574-.448.957-.448-.319.128-.51.384-.702.64-.191.256-.382.575-.446.767-.128.448.446.896.957 1.151l.319.192-.192.32c-.127.128-.191.32-.255.512s-.127.383-.127.511c0 .192.063.32.191.448.064.128.255.256.447.384l.382.32-.446.127c-.319.128-.574.32-.638.64-.192.512-.128.895 0 1.28zM266.035 32.937a.687.687 0 01-.446-.192c-.128-.064-.255-.256-.319-.512 0-.256.064-.447.191-.575.128-.128.255-.256.383-.32l-.064.447c-.127-.191-.319-.383-.383-.575a1.297 1.297 0 01-.191-.704c0-.511.191-1.023.574-1.279-.127.448-.127.832 0 1.215.128.384.255.704.511 1.024l.191.255-.319.192c-.128.064-.191.128-.319.192l-.191.192c0 .128.191.448.382.64zM285.047 28.268c1.276-.767 2.616-1.343 4.019-1.855a12.034 12.034 0 012.169-.575c.702-.128 1.468-.256 2.233-.192-.702.192-1.403.448-2.105.64l-2.042.703c-1.403.512-2.807.96-4.274 1.28z" fill="#BF8144"/><path d="M286.77 22.64c.319.576.51 2.942-1.659 3.518-2.169.575-2.743-2.175-2.36-2.686.319-.448 4.019-.832 4.019-.832z" fill="#fff"/><path d="M285.43 25.07c-.383.192-1.659-.064-1.786-.575-.192-.512 0-1.088.319-1.407.319-.256 1.977-.64 2.169-.384.319.192.255 1.855-.702 2.366z" fill="#0E1112"/><path d="M284.473 24.175a.511.511 0 100-1.023.511.511 0 000 1.023zM288.237 22.96s.511 1.79 1.914 1.855c1.404.064 1.468-1.791 1.34-2.175-.128-.384-3.19-.064-3.254.32z" fill="#fff"/><path d="M290.151 24.11c-.383.065-1.148-1.342-1.021-1.406.128-.064 2.17-.256 2.233-.064.064.192-.829 1.407-1.212 1.47z" fill="#0E1112"/><path d="M290.406 23.152a.51.51 0 10-.001-1.022.51.51 0 00.001 1.022z" fill="#fff"/><path d="M190.499 202.609s3.382 5.884 6.508 14.39 2.169 22.448 6.954 23.152c0 0-3.445 8.506-9.506-4.797-6.061-13.366-4.019-21.233-6.954-31.146 1.021-.703 1.34-1.918 2.998-1.599z" fill="#202628"/><path d="M187.373 204.912c2.743 6.075 5.295 40.803 14.227 37.413 8.932-3.389 1.786-38.884 1.786-38.884" stroke="#000" stroke-width="2" stroke-miterlimit="10" stroke-linecap="round"/><path d="M282.113 22.96s.637-.832 1.339-1.023c.702-.192 3.126-.192 3.381.191.256.384-.382 1.024-1.467 1.28-1.084.255-3.381.127-3.253-.448zM288.301 22.896c-.319 0-.51-1.024-.128-1.087.383-.064 3.254-.32 3.509 0 .383.511-.446.703-.829.703-.383 0-2.552.384-2.552.384z" fill="#BF8144"/></g><defs><clipPath id="clip0"><path fill="#fff" d="M0 0h308.333v250H0z"/></clipPath></defs></svg>