<svg width="39" height="39" viewBox="0 0 39 39" fill="none" xmlns="http://www.w3.org/2000/svg">
<rect x="1" y="1" width="37" height="37" rx="18.5" stroke="#230B34" stroke-width="2"/>
<line x1="10.7061" y1="11" x2="28.2943" y2="11" stroke="#230B34" stroke-width="2"/>
<mask id="path-3-outside-1_1_217" maskUnits="userSpaceOnUse" x="14.0591" y="6.17647" width="11" height="5" fill="black">
<rect fill="white" x="14.0591" y="6.17647" width="11" height="5"/>
<path d="M16.0591 10.1765C16.0591 9.0719 16.9545 8.17647 18.0591 8.17647H20.9414C22.046 8.17647 22.9414 9.0719 22.9414 10.1765V10.4706H16.0591V10.1765Z"/>
</mask>
<path d="M14.0591 10.1765C14.0591 7.96733 15.8499 6.17647 18.0591 6.17647H20.9414C23.1506 6.17647 24.9414 7.96733 24.9414 10.1765H20.9414H18.0591H14.0591ZM22.9414 10.4706H16.0591H22.9414ZM14.0591 10.4706V10.1765C14.0591 7.96733 15.8499 6.17647 18.0591 6.17647V10.1765V10.4706H14.0591ZM20.9414 6.17647C23.1506 6.17647 24.9414 7.96733 24.9414 10.1765V10.4706H20.9414V10.1765V6.17647Z" fill="#230B34" mask="url(#path-3-outside-1_1_217)"/>
<mask id="path-5-outside-2_1_217" maskUnits="userSpaceOnUse" x="11" y="12" width="17" height="19" fill="black">
<rect fill="white" x="11" y="12" width="17" height="19"/>
<path d="M13 12H26V23.8235C26 26.585 23.7614 28.8235 21 28.8235H18C15.2386 28.8235 13 26.585 13 23.8235V12Z"/>
</mask>
<path d="M13 12H26H13ZM28 23.8235C28 27.6895 24.866 30.8235 21 30.8235H18C14.134 30.8235 11 27.6895 11 23.8235H15C15 25.4804 16.3431 26.8235 18 26.8235H21C22.6569 26.8235 24 25.4804 24 23.8235H28ZM18 30.8235C14.134 30.8235 11 27.6895 11 23.8235V12H15V23.8235C15 25.4804 16.3431 26.8235 18 26.8235V30.8235ZM28 12V23.8235C28 27.6895 24.866 30.8235 21 30.8235V26.8235C22.6569 26.8235 24 25.4804 24 23.8235V12H28Z" fill="#230B34" mask="url(#path-5-outside-2_1_217)"/>
<line x1="17.8237" y1="15.0588" x2="17.8237" y2="24.2353" stroke="#230B34" stroke-width="2"/>
<line x1="22.4121" y1="15.0588" x2="22.4121" y2="24.2353" stroke="#230B34" stroke-width="2"/>
</svg>
