<svg width="39" height="39" viewBox="0 0 39 39" fill="none" xmlns="http://www.w3.org/2000/svg">
<rect x="1" y="1" width="37" height="37" rx="18.5" stroke="#230B34" stroke-width="2"/>
<path d="M13.8403 26.5984L26.5494 16.2879" stroke="#230B34" stroke-width="2"/>
<path d="M23.8994 13.0217L11.1316 23.3799" stroke="#230B34" stroke-width="2"/>
<path d="M8.87491 27.019L8.60306 27.7544L9.3845 27.6908L12.3995 27.4451L13.3445 27.3681L12.7472 26.6317L10.7383 24.1556L10.1854 23.474L9.88108 24.2973L8.87491 27.019Z" fill="#230B34" stroke="#230B34"/>
<path d="M27.5147 15.6181L27.8297 16.0064L28.218 15.6914C28.4786 15.48 28.7398 15.182 28.9426 14.855C29.1424 14.5327 29.3125 14.1385 29.3356 13.7356C29.3563 13.3739 29.3025 13.0887 29.1564 12.8158C29.0541 12.6246 28.9031 12.4419 28.7611 12.27C28.7311 12.2336 28.7014 12.1977 28.6727 12.1623C28.6428 12.1254 28.6117 12.0866 28.5795 12.0463C28.4257 11.8538 28.2467 11.6299 28.0508 11.4459C27.8016 11.2119 27.4841 10.9999 27.0646 10.9363C26.6656 10.8758 26.2448 10.961 25.8883 11.0901C25.5265 11.2211 25.181 11.4153 24.9204 11.6267L24.5321 11.9417L24.8471 12.33L26.2835 14.1005L27.5147 15.6181Z" fill="#230B34" stroke="#230B34"/>
</svg>
